<svg viewBox="0 0 500 500" xmlns="http://www.w3.org/2000/svg"><path d="m416.78 398.49h33.12v.25h-33.12z" fill="#ebebeb"/><path d="m322.53 401.21h8.69v.25h-8.69z" fill="#ebebeb"/><path d="m396.59 389.21h19.19v.25h-19.19z" fill="#ebebeb"/><path d="m52.46 390.89h43.19v.25h-43.19z" fill="#ebebeb"/><path d="m104.56 390.89h6.33v.25h-6.33z" fill="#ebebeb"/><path d="m131.47 395.11h93.68v.25h-93.68z" fill="#ebebeb"/><path d="m238.4 337.8h-193.1a5.71 5.71 0 0 1 -5.71-5.71v-271.43a5.71 5.71 0 0 1 5.71-5.66h193.1a5.71 5.71 0 0 1 5.71 5.71v271.38a5.71 5.71 0 0 1 -5.71 5.71zm-193.1-282.6a5.47 5.47 0 0 0 -5.46 5.46v271.43a5.47 5.47 0 0 0 5.46 5.46h193.1a5.47 5.47 0 0 0 5.46-5.46v-271.43a5.47 5.47 0 0 0 -5.46-5.46z" fill="#ebebeb"/><path d="m454.7 337.8h-193.1a5.71 5.71 0 0 1 -5.71-5.71v-271.43a5.71 5.71 0 0 1 5.71-5.66h193.1a5.71 5.71 0 0 1 5.71 5.71v271.38a5.71 5.71 0 0 1 -5.71 5.71zm-193.1-282.6a5.47 5.47 0 0 0 -5.46 5.46v271.43a5.47 5.47 0 0 0 5.46 5.46h193.1a5.47 5.47 0 0 0 5.46-5.46v-271.43a5.47 5.47 0 0 0 -5.46-5.46z" fill="#ebebeb"/><path d="m0 382.4h500v.25h-500z" fill="#ebebeb"/><path d="m350.07 249.95h95.18v126.65h-95.18z" fill="#f5f5f5" transform="matrix(-1 0 0 -1 795.32 626.54)"/><path d="m331.92 249.95h18.16v126.65h-18.16z" fill="#e6e6e6" transform="matrix(-1 0 0 -1 681.99 626.54)"/><path d="m356.25 259.34h82.33v30.76h-82.33z" fill="#fafafa" transform="matrix(-1 0 0 -1 794.83 549.44)"/><path d="m408.15 259.34-.36 4.1a2.61 2.61 0 0 1 -2.61 2.39h-15.53a2.61 2.61 0 0 1 -2.61-2.39l-.36-4.1z" fill="#ebebeb"/><path d="m356.25 293.46h82.33v30.76h-82.33z" fill="#fafafa" transform="matrix(-1 0 0 -1 794.83 617.67)"/><path d="m408.15 293.46-.36 4.1a2.62 2.62 0 0 1 -2.61 2.39h-15.53a2.62 2.62 0 0 1 -2.61-2.39l-.36-4.1z" fill="#ebebeb"/><path d="m356.25 327.57h82.33v30.76h-82.33z" fill="#fafafa" transform="matrix(-1 0 0 -1 794.83 685.9)"/><path d="m408.15 327.57-.36 4.1a2.61 2.61 0 0 1 -2.61 2.39h-15.53a2.61 2.61 0 0 1 -2.61-2.39l-.36-4.1z" fill="#ebebeb"/><path d="m356.25 382.92h81.33l1-6.34h-82.33z" fill="#e6e6e6"/><path d="m339.25 382.92h17v-6.34h-18z" fill="#e0e0e0"/><path d="m394.48 250.08h32.5l-3.6-41.21h-32.5z" fill="#fafafa"/><path d="m394.48 250.08h-1.55l-3.61-41.21h1.56z" fill="#ebebeb"/><path d="m397.43 245.88h25.87l-2.87-32.81h-25.87z" fill="#f0f0f0"/><path d="m399.32 243.18h21.61l-2.39-27.41h-21.62z" fill="#e6e6e6"/><path d="m385.35 250.08 2.23-25.51h-32.35l-2.23 25.51z" fill="#f0f0f0"/><path d="m385.35 250.08 2.23-25.51h1.74l-2.23 25.51z" fill="#e0e0e0"/><path d="m382.28 247.48 1.78-20.31h-25.76l-1.78 20.31z" fill="#ebebeb"/><path d="m380.31 245.81 1.48-16.96h-21.52l-1.48 16.96z" fill="#f5f5f5"/><path d="m310.64 365.77c0 6.76-1.06 11.13-2.84 13.94a7.4 7.4 0 0 1 -6.26 3.3h-9.79a7.4 7.4 0 0 1 -6.26-3.3c-1.78-2.81-2.85-7.18-2.85-13.94 0-9.81 4.28-17.66 5.68-23.92.5-2.26-1.18-9.18-1.18-9.18h19s-1.67 6.92-1.17 9.18c1.4 6.26 5.67 14.15 5.67 23.92z" fill="#ebebeb"/><path d="m343 326.09c0-8.52-13.35-5-16.71-18.19-1.28-5 9.58-16.33 9.58-16.33h-33.87s10.86 11.33 9.58 16.33c-3.36 13.21-16.71 9.67-16.71 18.19 0 9.37 18.83 28.9 19.74 50.88.08 2-3.54 6-3.54 6h15.72s-3.63-4.08-3.54-6c.92-21.97 19.75-41.51 19.75-50.88z" fill="#f5f5f5"/><path d="m332.77 348.21c2-4.14-2.1-18.2-2.1-18.2h14.67s-4.07 14.06-2.1 18.2c1.39 2.92 4.54 4.79 4.54 8.24v20.77c0 5.38-4.4 5.79-9.78 5.79s-9.78-.41-9.78-5.79v-20.77c0-3.45 3.16-5.32 4.55-8.24z" fill="#f0f0f0"/><path d="m165.15 225.53c-8.42-3.65-13.23-11.35-10.71-17.17s11.42-7.58 19.85-3.93 13.23 11.35 10.71 17.17-11.42 7.58-19.85 3.93zm6.71-15.53c-4-1.71-8.12-.89-9.3 1.84s1.07 6.33 5 8 8.12.89 9.3-1.84-1.05-6.25-5-8z" fill="#e6e6e6"/><path d="m175.07 210.36-4-1.73 24.2-55.94a2.17 2.17 0 0 1 2.87-1.13 2.17 2.17 0 0 1 1.13 2.86z" fill="#e6e6e6"/><path d="m201.12 159.83-7.69-3.36 1.74-4 7.68 3.36z" fill="#e6e6e6"/><path d="m197.33 164.31-5.5-2.39 1.73-4.01 5.5 2.39z" fill="#e6e6e6"/><path d="m191.37 165.54h4.36v6.72h-4.36z" fill="#e6e6e6" transform="matrix(.39730806 -.9176853 .9176853 .39730806 -38.36 279.4)"/><path d="m176.62 204.39-2.2-.95a2.17 2.17 0 0 1 -1.12-2.85 2.17 2.17 0 0 1 2.85-1.13l2.2.95a2.17 2.17 0 0 1 1.12 2.85 2.17 2.17 0 0 1 -2.85 1.13z" fill="#e6e6e6"/><path d="m348.47 185.16a14.92 14.92 0 1 1 -20.38 4.34 14.75 14.75 0 0 1 20.38-4.34zm-12.15 18.23a7 7 0 1 0 -1.8-9.6 6.91 6.91 0 0 0 1.8 9.6z" fill="#e6e6e6"/><path d="m334.71 201.61 4.14 2.76-29.62 45.32a2.49 2.49 0 0 1 -3.45.69 2.48 2.48 0 0 1 -.69-3.44z" fill="#e6e6e6"/><path d="m305.28 237.05 8.72 5.85-4.35 6.53-8.73-5.86a2.74 2.74 0 0 1 -.75-3.79l1.31-2a2.75 2.75 0 0 1 3.8-.73z" fill="#e6e6e6"/><path d="m227.54 98.56-4.6 11.9a2.08 2.08 0 1 1 -3.89-1.5l4.6-11.9a7.49 7.49 0 0 0 -4.28-9.67l-4.26-1.65a7.49 7.49 0 0 0 -9.67 4.26l-1.88 4.86-3.88-1.5 1.88-4.86a11.64 11.64 0 0 1 15.05-6.67l4.26 1.64a11.66 11.66 0 0 1 6.67 15.09z" fill="#f0f0f0"/><path d="m226.81 100.43a2.87 2.87 0 0 0 -1.22-.91l-23.2-9a2.87 2.87 0 0 0 -3.68 1.63l-9 23.21a2.84 2.84 0 0 0 1.63 3.67l23.2 9a2.84 2.84 0 0 0 3.68-1.63l9-23.2a2.83 2.83 0 0 0 -.41-2.77zm-17.62 17.93-7.35-2.84 3.89-6.79a4.08 4.08 0 1 1 7.46-.34 4 4 0 0 1 -2.32 2.32z" fill="#e6e6e6"/><path d="m69.16 269.82h185.13v99.63h-185.13z" fill="#e6e6e6" transform="matrix(-1 0 0 -1 323.44 639.28)"/><path d="m239.44 373.59h11.64v8.79h-11.64z" fill="#e6e6e6" transform="matrix(-1 0 0 -1 490.52 755.98)"/><path d="m55.03 262.41h11.64v119.97h-11.64z" fill="#e6e6e6" transform="matrix(-1 0 0 -1 121.69 644.8)"/><path d="m66.52 262.41v120h6.21v-6.72h178.35v6.72h6.21v-120zm6.21 10.86h86.07v41.67h-86.07zm178.35 91.53h-86.08v-91.53h86.07zm-178.35 0v-43.65h86.07v43.65z" fill="#f0f0f0"/><path d="m165.01 277.75h80.26v87.05h-80.26z" fill="#f5f5f5" transform="matrix(-1 0 0 -1 410.27 642.56)"/><path d="m168.64 318.67a3.73 3.73 0 1 0 3.73-3.73 3.73 3.73 0 0 0 -3.73 3.73z" fill="#fafafa"/><path d="m172.37 322.4a3.73 3.73 0 0 0 3.38-2.18 3.67 3.67 0 0 1 .35 1.55 3.73 3.73 0 1 1 -7.46 0 3.67 3.67 0 0 1 .35-1.55 3.73 3.73 0 0 0 3.38 2.18z" fill="#e0e0e0"/><path d="m214.14 364.8h-19.15l-9.15-87.05h19.15z" fill="#fafafa"/><path d="m190.09 364.8h-3.81l-9.15-87.05h3.81z" fill="#fafafa"/><path d="m139.4 277.67h7.58v37.23h-7.58z" fill="#fafafa" transform="matrix(-1 0 0 -1 286.39 592.57)"/><path d="m107.96 277.67h7.58v37.23h-7.58z" fill="#f5f5f5" transform="matrix(-1 0 0 -1 223.5 592.57)"/><path d="m131.82 280.28h7.58v34.62h-7.58z" fill="#f5f5f5" transform="matrix(-1 0 0 -1 271.22 595.18)"/><path d="m115.54 280.28h7.58v34.62h-7.58z" fill="#fafafa" transform="matrix(-1 0 0 -1 238.66 595.18)"/><path d="m123.12 277.67h4.9v37.23h-4.9z" fill="#ebebeb" transform="matrix(-1 0 0 -1 251.15 592.57)"/><path d="m128.03 280.28h3.79v34.62h-3.79z" fill="#fafafa" transform="matrix(-1 0 0 -1 259.84 595.18)"/><path d="m100.37 277.67h7.58v37.23h-7.58z" fill="#ebebeb" transform="matrix(-1 0 0 -1 208.33 592.57)"/><path d="m92.79 280.28h7.58v34.62h-7.58z" fill="#e6e6e6" transform="matrix(-1 0 0 -1 193.16 595.18)"/><path d="m76.51 280.28h7.58v34.62h-7.58z" fill="#e6e6e6" transform="matrix(-1 0 0 -1 160.6 595.18)"/><path d="m84.09 277.67h4.9v37.23h-4.9z" fill="#fafafa" transform="matrix(-1 0 0 -1 173.09 592.57)"/><path d="m88.99 280.28h3.79v34.62h-3.79z" fill="#ebebeb" transform="matrix(-1 0 0 -1 181.78 595.18)"/><path d="m72.72 278.55h3.79v36.35h-3.79z" fill="#ebebeb" transform="matrix(-1 0 0 -1 149.23 593.45)"/><path d="m72.72 327.57h7.58v37.23h-7.58z" fill="#ebebeb"/><path d="m104.16 327.57h7.58v37.23h-7.58z" fill="#fafafa"/><path d="m80.3 330.19h7.58v34.62h-7.58z" fill="#fafafa"/><path d="m96.58 330.19h7.58v34.62h-7.58z" fill="#ebebeb"/><path d="m91.68 327.57h4.9v37.23h-4.9z" fill="#fafafa"/><path d="m87.89 330.19h3.79v34.62h-3.79z" fill="#f5f5f5"/><path d="m111.75 327.57h7.58v37.23h-7.58z" fill="#ebebeb"/><path d="m119.33 330.19h7.58v34.62h-7.58z" fill="#f5f5f5"/><path d="m135.61 330.19h7.58v34.62h-7.58z" fill="#e6e6e6"/><path d="m130.71 327.57h4.9v37.23h-4.9z" fill="#fafafa"/><path d="m146.99 327.57h4.9v37.23h-4.9z" fill="#fafafa"/><path d="m126.92 330.19h3.79v34.62h-3.79z" fill="#ebebeb"/><path d="m143.19 328.45h3.79v36.35h-3.79z" fill="#ebebeb"/><path d="m81.18 198.29a4.3 4.3 0 0 0 -1.86 1.77c-.58 1.18 1.23 3.37 1.23 3.37a3.36 3.36 0 0 0 3 .37l1.5-.68s-2.57-4.47-3.82-4.52z" fill="#e6e6e6"/><path d="m87.63 198.25c.18 2.12-1.13 4.8-3 5s-3.63-2.25-3.85-4.4 1.34-2.33 3.23-2.49 3.43-.23 3.62 1.89z" fill="#e6e6e6"/><path d="m82.08 197.63s1.45 1.15 4.43.48c0 0-4.7 3.13-4.43-.48z" fill="#e6e6e6"/><path d="m83.36 197.21s1.67-.29 1.69.4c0 0 1.42-.08 1.22-.67s-2.91.27-2.91.27z" fill="#e6e6e6"/><path d="m82.08 197.63s1.45 1.15 4.43.48c0 0-4.7 3.13-4.43-.48z" fill="#fafafa" opacity=".2"/><path d="m83.36 197.21s1.67-.29 1.69.4c0 0 1.42-.08 1.22-.67s-2.91.27-2.91.27z" fill="#fafafa" opacity=".2"/><path d="m81.43 203.88a3.08 3.08 0 0 0 3 1.34 4.13 4.13 0 0 0 2.82-1.79 6.25 6.25 0 0 0 1-3.23c0-.29 0-1-.35-1.15s-.58.4-.74.63a12.3 12.3 0 0 1 -1.59 1.86 10.34 10.34 0 0 1 -1.93 1.46c-.2.06-2.1 1.05-2.21.88z" fill="#e6e6e6"/><path d="m89.55 199.65a2.77 2.77 0 0 1 -.33 2.65 4.91 4.91 0 0 1 -1.41 1.15c-.37.22-.84.43-1.2.2s-.35-.82-.26-1.27c.14-.69.29-1.38.47-2.07a6.94 6.94 0 0 1 .56-2c.31-.44.74-.18 1.21.15a2.74 2.74 0 0 1 .96 1.19z" fill="#e6e6e6"/><path d="m81.91 202.71a2 2 0 0 1 -1.68-1.21c-.2-.51-.2-1.78.46-1.95a8.84 8.84 0 0 0 1.22 3.16z" fill="#fafafa" opacity=".2"/><path d="m86.84 202.65a2.2 2.2 0 0 0 1.48-1.44c.11-.38 0-2.32-.61-1.51-.19.27-.15 1.12-.25 1.47a6.83 6.83 0 0 1 -.62 1.48z" fill="#fafafa" opacity=".2"/><path d="m84.2 203.85a1.61 1.61 0 0 0 2 .05c-.08.38-1.26.69-1.62.8-1 .28-1.46-.14-2.38-.53-.05 0 1.41.22 2-.32z" fill="#fafafa" opacity=".2"/><path d="m82.55 242.8.09-28.85 1.48-8.77.56.09-1.47 8.73-.11 29.35z" fill="#e0e0e0"/><path d="m83.15 213.8-.45.35a15.71 15.71 0 0 1 -1.34-2.25 20.36 20.36 0 0 0 -2.81-4.32l.42-.39a21.15 21.15 0 0 1 2.9 4.44 15.38 15.38 0 0 0 1.28 2.17z" fill="#e0e0e0"/><path d="m83.5 209.93a3.37 3.37 0 0 0 1.9-1.35 6.73 6.73 0 0 0 .84-2.55c-1 .3-2.07-.18-3.1-.06a2.71 2.71 0 0 0 -2 1.31c-.54.93-.76 2-.28 2.41a3.53 3.53 0 0 0 2.64.24z" fill="#e6e6e6"/><path d="m79.66 207.94a3.77 3.77 0 0 1 -3.14.39c-1-.33-1.33-1.89-1.74-2.9a20.81 20.81 0 0 1 3.87 0 1.84 1.84 0 0 1 1.38.76 1.11 1.11 0 0 1 -.21 1.46s-.16.29-.16.29z" fill="#e6e6e6"/><path d="m74.93 209.63a4 4 0 0 1 3.17-1.15 3 3 0 0 1 2.16 1.65 1.87 1.87 0 0 1 -1.62 1 5.56 5.56 0 0 1 -2-.34 5.44 5.44 0 0 0 -2-.35z" fill="#e6e6e6"/><path d="m94.18 204.67a4.29 4.29 0 0 1 1.25 2.23c.21 1.31-2.16 2.86-2.16 2.86a3.34 3.34 0 0 1 -3-.53l-1.27-1.1s3.78-3.51 5-3.18z" fill="#e6e6e6"/><path d="m88 202.74c-.79 2-.32 4.91 1.44 5.62s4.14-1.07 4.94-3-.58-2.66-2.38-3.36-3.18-1.23-4 .74z" fill="#e6e6e6"/><path d="m93.51 203.77s-1.73.68-4.38-.84c0 0 3.57 4.37 4.38.84z" fill="#e6e6e6"/><path d="m92.41 203s-1.51-.77-1.74-.11c0 0-1.33-.49-1-1s2.74 1.11 2.74 1.11z" fill="#e6e6e6"/><path d="m93.51 203.77s-1.73.68-4.38-.84c0 0 3.57 4.37 4.38.84z" fill="#fafafa" opacity=".2"/><path d="m92.41 203s-1.51-.77-1.74-.11c0 0-1.33-.49-1-1s2.74 1.11 2.74 1.11z" fill="#fafafa" opacity=".2"/><path d="m92.29 209.94a3.12 3.12 0 0 1 -3.23.41 4.15 4.15 0 0 1 -2.17-2.54 6.33 6.33 0 0 1 0-3.4c.06-.29.26-1 .67-1s.43.55.52.82a11.27 11.27 0 0 0 1 2.25 10.31 10.31 0 0 0 1.43 1.92c.1.17 1.63 1.67 1.78 1.54z" fill="#e6e6e6"/><path d="m85.78 203.51a2.7 2.7 0 0 0 -.46 2.62 4.54 4.54 0 0 0 1 1.52c.28.32.67.66 1.08.54s.57-.68.62-1.13c.07-.71.13-1.41.16-2.12a6.73 6.73 0 0 0 0-2.05c-.16-.52-.66-.4-1.2-.22a2.63 2.63 0 0 0 -1.2.84z" fill="#e6e6e6"/><path d="m92.18 208.67a1.93 1.93 0 0 0 2-.66c.33-.42.7-1.64.13-2a9 9 0 0 1 -2.13 2.66z" fill="#fafafa" opacity=".2"/><path d="m87.48 207.17a2.17 2.17 0 0 1 -1-1.81c0-.4.71-2.21 1-1.26.1.31-.19 1.11-.19 1.47a7.12 7.12 0 0 0 .19 1.6z" fill="#fafafa" opacity=".2"/><path d="m89.65 209.09a1.59 1.59 0 0 1 -1.87-.52c0 .38 1 1 1.31 1.24.83.55 1.43.29 2.43.19 0 0-1.46-.21-1.87-.91z" fill="#fafafa" opacity=".2"/><path d="m81.73 238.49.36-1.18.48-1.59.56-1.86 4.49-14.77.56-4.24.5-3.76.1-.78.28.03v.01l.29.03-.01.07-.1.74-.53 4.02-.43 3.28-.1.72-.04.11-5.01 16.5-.57 1.85-.25.86-.36 1.17z" fill="#e0e0e0"/><path d="m87.73 218.92.33.46a16.25 16.25 0 0 0 1.94-1.76 20.1 20.1 0 0 1 4-3.3l-.29-.49a20.34 20.34 0 0 0 -4.07 3.39 17.68 17.68 0 0 1 -1.91 1.7z" fill="#e0e0e0"/><path d="m88.54 215.12a3.32 3.32 0 0 1 -1.42-1.85 6.58 6.58 0 0 1 -.05-2.69c.86.58 2 .43 3 .85a2.72 2.72 0 0 1 1.53 1.84c.24 1 .14 2.12-.44 2.39a3.51 3.51 0 0 1 -2.62-.54z" fill="#e6e6e6"/><path d="m92.79 214.34a3.76 3.76 0 0 0 2.88 1.3c1.09 0 1.84-1.42 2.52-2.27a20.39 20.39 0 0 0 -3.69-1.14 1.83 1.83 0 0 0 -1.54.32 1.11 1.11 0 0 0 -.24 1.46s.07.33.07.33z" fill="#e6e6e6"/><path d="m96.82 217.34a3.93 3.93 0 0 0 -2.7-2 3 3 0 0 0 -2.55.94 1.88 1.88 0 0 0 1.25 1.45 5.56 5.56 0 0 0 2 .25 5.35 5.35 0 0 1 2 .25z" fill="#e6e6e6"/><path d="m73.92 203.51a4.33 4.33 0 0 0 -1.5 2.08c-.36 1.27 1.81 3.09 1.81 3.09a3.33 3.33 0 0 0 3-.17l1.36-.95s-3.33-3.93-4.57-3.75z" fill="#e6e6e6"/><path d="m80.26 202.32c.56 2.05-.25 4.92-2.08 5.42s-4-1.55-4.55-3.6.9-2.53 2.73-3 3.34-.87 3.9 1.18z" fill="#e6e6e6"/><path d="m74.69 202.7s1.63.88 4.44-.32c0 0-4.05 3.93-4.44.32z" fill="#e6e6e6"/><path d="m75.87 202.06s1.59-.59 1.74.09c0 0 1.38-.33 1.08-.88s-2.82.79-2.82.79z" fill="#e6e6e6"/><path d="m74.69 202.7s1.63.88 4.44-.32c0 0-4.05 3.93-4.44.32z" fill="#fafafa" opacity=".2"/><path d="m75.87 202.06s1.59-.59 1.74.09c0 0 1.38-.33 1.08-.88s-2.82.79-2.82.79z" fill="#fafafa" opacity=".2"/><path d="m75.17 209a3.12 3.12 0 0 0 3.16.79 4.17 4.17 0 0 0 2.46-2.27 6.25 6.25 0 0 0 .44-3.37c0-.29-.14-1-.55-1.07s-.5.5-.62.76a11.74 11.74 0 0 1 -1.23 2.11 10.07 10.07 0 0 1 -1.65 1.74c-.18.11-1.87 1.43-2.01 1.31z" fill="#e6e6e6"/><path d="m82.4 203.35a2.74 2.74 0 0 1 .15 2.66 4.63 4.63 0 0 1 -1.18 1.39c-.32.28-.75.57-1.14.41s-.49-.74-.48-1.2c0-.71 0-1.41.08-2.12a6.87 6.87 0 0 1 .2-2c.22-.5.7-.32 1.22-.08a2.73 2.73 0 0 1 1.15.94z" fill="#e6e6e6"/><path d="m75.44 207.73a1.93 1.93 0 0 1 -1.88-.89c-.28-.46-.51-1.72.1-2a9.07 9.07 0 0 0 1.78 2.89z" fill="#fafafa" opacity=".2"/><path d="m80.28 206.79a2.2 2.2 0 0 0 1.19-1.69c0-.39-.45-2.27-.87-1.37a7.37 7.37 0 0 0 0 1.48 7.07 7.07 0 0 1 -.32 1.58z" fill="#fafafa" opacity=".2"/><path d="m77.9 208.44a1.6 1.6 0 0 0 1.92-.3c0 .38-1.11.9-1.45 1.08-.89.44-1.46.12-2.44-.09 0 0 1.48-.05 1.97-.69z" fill="#fafafa" opacity=".2"/><path d="m83.27 247.06-5.1-28.4-.12-8.9.57-.01.12 8.86 5.17 28.89z" fill="#e0e0e0"/><path d="m78.65 218.42-.39.42a15.71 15.71 0 0 1 -1.71-2 20.27 20.27 0 0 0 -3.55-3.72l.35-.45a21 21 0 0 1 3.65 3.85 15.41 15.41 0 0 0 1.65 1.9z" fill="#e0e0e0"/><path d="m78.29 214.55a3.32 3.32 0 0 0 1.63-1.67 6.58 6.58 0 0 0 .37-2.66c-.93.48-2.07.19-3.06.49a2.76 2.76 0 0 0 -1.74 1.66c-.36 1-.39 2.08.16 2.41a3.47 3.47 0 0 0 2.64-.23z" fill="#e6e6e6"/><path d="m74.16 213.28a3.73 3.73 0 0 1 -3 .95c-1.08-.14-1.66-1.62-2.23-2.54a19.46 19.46 0 0 1 3.8-.7 1.83 1.83 0 0 1 1.49.49 1.12 1.12 0 0 1 .06 1.48s-.12.32-.12.32z" fill="#e6e6e6"/><path d="m69.81 215.79a4 4 0 0 1 2.91-1.69 3 3 0 0 1 2.43 1.23 1.85 1.85 0 0 1 -1.42 1.29 5.38 5.38 0 0 1 -2 0 5.38 5.38 0 0 0 -2 0z" fill="#e6e6e6"/><path d="m85.35 229.63h-6a1 1 0 0 0 -1 .71 41.12 41.12 0 0 0 -1.53 12.06c0 7 1.84 16.42 2.42 19.19a1 1 0 0 0 1 .81h4.16a1 1 0 0 0 1-.81c.58-2.77 2.42-12.14 2.42-19.19a41.12 41.12 0 0 0 -1.53-12.06 1 1 0 0 0 -.94-.71z" fill="#f0f0f0"/><ellipse cx="250" cy="415.69" fill="#f5f5f5" rx="193.89" ry="11.32"/><path d="m120.78 376.77a.63.63 0 0 1 -.59-.65c.74-29.39 2.25-77.6 2.33-77.87a.66.66 0 0 1 .8-.43.65.65 0 0 1 .43.8c0 .06-1.55 48.44-2.29 77.53a.63.63 0 0 1 -.65.62z" fill="#263238"/><path d="m116.83 278.63c.25 2.26 3 10.11 5.22 9.87s3.23-8.5 3-10.76a4.12 4.12 0 0 0 -8.2.89z" fill="#fa7436"/><path d="m127.82 303.39c-.25-2.27-3-10.12-5.22-9.87s-3.22 8.49-3 10.76a4.12 4.12 0 0 0 8.2-.89z" fill="#fa7436"/><path d="m110 296.5c2.26-.24 10.11-2.95 9.86-5.22s-8.49-3.22-10.75-3a4.12 4.12 0 1 0 .89 8.2z" fill="#fa7436"/><path d="m134.7 285.52c-2.26.24-10.11 3-9.86 5.22s8.49 3.22 10.75 3a4.12 4.12 0 1 0 -.89-8.19z" fill="#fa7436"/><path d="m109.69 286.14c1.77 1.43 9.24 5.06 10.67 3.29s-3.73-8.29-5.5-9.72a4.13 4.13 0 1 0 -5.17 6.43z" fill="#fa7436"/><path d="m135 295.88c-1.77-1.43-9.24-5.06-10.66-3.29s3.72 8.29 5.5 9.71a4.12 4.12 0 1 0 5.16-6.42z" fill="#fa7436"/><path d="m117.46 303.64c1.43-1.77 5.06-9.24 3.28-10.66s-8.28 3.72-9.71 5.5a4.12 4.12 0 1 0 6.43 5.16z" fill="#fa7436"/><path d="m127.19 278.37c-1.42 1.78-5.06 9.24-3.28 10.67s8.28-3.73 9.71-5.5a4.13 4.13 0 1 0 -6.43-5.17z" fill="#fa7436"/><g fill="#fff" opacity=".6"><path d="m116.83 278.63c.25 2.26 3 10.11 5.22 9.87s3.23-8.5 3-10.76a4.12 4.12 0 0 0 -8.2.89z"/><path d="m127.82 303.39c-.25-2.27-3-10.12-5.22-9.87s-3.22 8.49-3 10.76a4.12 4.12 0 0 0 8.2-.89z"/><path d="m110 296.5c2.26-.24 10.11-2.95 9.86-5.22s-8.49-3.22-10.75-3a4.12 4.12 0 1 0 .89 8.2z"/><path d="m134.7 285.52c-2.26.24-10.11 3-9.86 5.22s8.49 3.22 10.75 3a4.12 4.12 0 1 0 -.89-8.19z"/><path d="m109.69 286.14c1.77 1.43 9.24 5.06 10.67 3.29s-3.73-8.29-5.5-9.72a4.13 4.13 0 1 0 -5.17 6.43z"/><path d="m135 295.88c-1.77-1.43-9.24-5.06-10.66-3.29s3.72 8.29 5.5 9.71a4.12 4.12 0 1 0 5.16-6.42z"/><path d="m117.46 303.64c1.43-1.77 5.06-9.24 3.28-10.66s-8.28 3.72-9.71 5.5a4.12 4.12 0 1 0 6.43 5.16z"/><path d="m127.19 278.37c-1.42 1.78-5.06 9.24-3.28 10.67s8.28-3.73 9.71-5.5a4.13 4.13 0 1 0 -6.43-5.17z"/></g><path d="m117.47 291.54a4.88 4.88 0 1 0 4.33-5.39 4.88 4.88 0 0 0 -4.33 5.39z" fill="#fa7436"/><path d="m118 355.24c-5.63.12-15.27-5.08-19.06-10.16s6.94-2 5.82-6-14.41-1-16.88-6.82 7.13-4.49 6.74-7.46-10.33-2.34-13.54-8.5 5.55-2.74 4.17-5.29-12.37-13.3-7.79-15.56 14.88 8.93 18.33 10.18 4.23-6.51 8.71-2.82 1.19 19.91 6.47 22c3.93 1.58 2.24-5.83 6.76-4 7.88 3.27 2.51 34.38.27 34.43z" fill="#fa7436"/><path d="m118 355.24c-5.63.12-15.27-5.08-19.06-10.16s6.94-2 5.82-6-14.41-1-16.88-6.82 7.13-4.49 6.74-7.46-10.33-2.34-13.54-8.5 5.55-2.74 4.17-5.29-12.37-13.3-7.79-15.56 14.88 8.93 18.33 10.18 4.23-6.51 8.71-2.82 1.19 19.91 6.47 22c3.93 1.58 2.24-5.83 6.76-4 7.88 3.27 2.51 34.38.27 34.43z" fill="#fff" opacity=".2"/><path d="m126.05 348.09c.09.16-.75 1 2 1.07 6.85.28 19-.18 23.51-6.41 6.5-8.89-8.48-8.07-7-13s17.55-.9 20.69-7.9-8.57-5.63-8-9.24 12.82 1.07 16.87-6.36-6.68-3.45-5-6.53 15.4-15.86 9.88-18.72-18.31 10.52-22.53 12-5.2-11.68-10.74-7.29-1.91 24.18-8.38 26.64c-4.82 1.83-2.19-5.27-8.14-5-8.07.33-10.73 28.09-3.16 40.74z" fill="#fa7436"/><path d="m126.05 348.09c.09.16-.75 1 2 1.07 6.85.28 19-.18 23.51-6.41 6.5-8.89-8.48-8.07-7-13s17.55-.9 20.69-7.9-8.57-5.63-8-9.24 12.82 1.07 16.87-6.36-6.68-3.45-5-6.53 15.4-15.86 9.88-18.72-18.31 10.52-22.53 12-5.2-11.68-10.74-7.29-1.91 24.18-8.38 26.64c-4.82 1.83-2.19-5.27-8.14-5-8.07.33-10.73 28.09-3.16 40.74z" fill="#fff" opacity=".3"/><g fill="#263238"><path d="m120.92 372.33a.44.44 0 0 1 -.39-.5c5.62-46 32.13-64.72 32.4-64.9a.44.44 0 1 1 .5.73c-.26.19-26.44 18.69-32 64.28a.45.45 0 0 1 -.51.39z"/><path d="m146.85 313.32a.43.43 0 0 1 -.4-.3.45.45 0 0 1 .28-.57c.17-.05 4.12-1.3 10.58.07a.46.46 0 0 1 .35.53.45.45 0 0 1 -.53.35c-6.22-1.32-10.08-.11-10.12-.1a.41.41 0 0 1 -.16.02z"/><path d="m142 318.91a.44.44 0 0 1 -.43-.44c-.14-13.92 7.92-24.79 8-24.9a.46.46 0 0 1 .62-.09.45.45 0 0 1 .09.63c-.08.1-8 10.75-7.82 24.35a.45.45 0 0 1 -.44.45z"/><path d="m134.06 330.69a.41.41 0 0 1 -.3-.14.44.44 0 0 1 0-.63c.06-.05 6-5.57 13.84-2.77a.45.45 0 0 1 -.3.84c-7.3-2.62-12.87 2.53-12.92 2.58a.43.43 0 0 1 -.32.12z"/><path d="m129.93 338.91a.46.46 0 0 1 -.39-.27 33.6 33.6 0 0 1 -1.43-17.26.44.44 0 0 1 .51-.37.45.45 0 0 1 .37.51 33.24 33.24 0 0 0 1.37 16.77.44.44 0 0 1 -.23.58.48.48 0 0 1 -.2.04z"/><path d="m121.09 388.77a.44.44 0 0 1 -.42-.43l-.58-12.19c-1.71-40.53-29.5-68.09-29.78-68.36a.45.45 0 0 1 .62-.64c.28.28 28.33 28.07 30.05 69l.58 12.19a.45.45 0 0 1 -.43.46z"/><path d="m101.77 323h-.07a.24.24 0 0 1 -.13-.05l-.15-.05a28.73 28.73 0 0 0 -11.42-2.22.45.45 0 0 1 -.46-.43.45.45 0 0 1 .44-.46 29.9 29.9 0 0 1 11.81 2.28l.14.06h.08a.43.43 0 0 1 .23.49.44.44 0 0 1 -.47.38z"/><path d="m105.7 328.23a.43.43 0 0 1 -.4-.48c1.07-12-5.12-21.81-5.19-21.9a.45.45 0 0 1 .76-.48c.06.1 6.42 10.18 5.31 22.46a.44.44 0 0 1 -.48.4z"/><path d="m109.76 335.16a.43.43 0 0 1 -.3-.13 12.1 12.1 0 0 0 -11.16-2.74.45.45 0 0 1 -.55-.32.44.44 0 0 1 .32-.54 12.75 12.75 0 0 1 12 3 .44.44 0 0 1 0 .63.42.42 0 0 1 -.31.1z"/><path d="m114.91 346.58a.41.41 0 0 1 -.19-.05.44.44 0 0 1 -.19-.6 29.44 29.44 0 0 0 2.39-14.67.45.45 0 0 1 .41-.48.44.44 0 0 1 .48.41 29.74 29.74 0 0 1 -2.49 15.15.44.44 0 0 1 -.41.24z"/></g><path d="m146.16 390.69c0 14.21-6.4 25.74-25.76 25.74-18.48 0-25.75-11.53-25.75-25.74a25.69 25.69 0 0 1 4.45-14.47h42.61a25.69 25.69 0 0 1 4.45 14.47z" fill="#fa7436"/><path d="m146.16 390.69c0 14.21-6.4 25.74-25.76 25.74-18.48 0-25.75-11.53-25.75-25.74a25.69 25.69 0 0 1 4.45-14.47h42.61a25.69 25.69 0 0 1 4.45 14.47z" fill="#fff" opacity=".7"/><path d="m294.1 403.86 9.96-1.45-2.51-23.3-9.97 1.45z" fill="#e8bfbf"/><path d="m311.72 402.76a3.89 3.89 0 0 0 2.32-1 1.34 1.34 0 0 0 .23-1.22.78.78 0 0 0 -.5-.56c-1.33-.48-5 2.21-5.38 2.51a.25.25 0 0 0 -.09.27.23.23 0 0 0 .22.15 18 18 0 0 0 3.2-.15zm1.4-2.34a1 1 0 0 1 .45 0 .31.31 0 0 1 .21.23.9.9 0 0 1 -.15.81c-.51.63-2.14 1-4.4 1a13 13 0 0 1 3.92-2z" fill="#fa7436"/><path d="m308.58 402.92h.08c1.11-.73 3.1-3.27 2.72-4.36a.88.88 0 0 0 -1-.53 1.75 1.75 0 0 0 -1.26.59c-1.07 1.24-.86 4-.86 4.08a.28.28 0 0 0 .1.21.27.27 0 0 0 .22.01zm1.67-4.42.14-.07c.44 0 .49.15.5.2.24.67-1.09 2.62-2.19 3.52a5.43 5.43 0 0 1 .77-3.29 1.22 1.22 0 0 1 .8-.37z" fill="#fa7436"/><path d="m303 398.28-8.83 2.11a.79.79 0 0 0 -.63.85l.29 12.79a1.63 1.63 0 0 0 1.84 1.39 1.08 1.08 0 0 0 .19 0c3.82-1 5.63-1.6 10.49-2.73 3-.68 12.43-1.4 16.3-3.12s2.36-5.64.6-5.27c-5.68 1.22-13-1.21-17.11-4.91-.52-.31-2.49-1.26-3.14-1.11z" fill="#263238"/><path d="m301.55 379.11 1.29 12.01-9.96 1.46-1.3-12.01z" opacity=".2"/><path d="m306.87 386.18-18.43 3.44s-8.95-12.78-10.64-21.85c-1.76-9.45.12-41.61 0-42-5.21-17.6-19.38-63.2-26.21-80-3.79-9.3-6.45-15.56-6.45-15.56l1.91-.43 15.05-6.16 11 2.06s33.31 67.37 36.8 92.71c2.57 18.9-3.03 67.79-3.03 67.79z" fill="#fa7436"/><path d="m306.87 386.18-18.43 3.44s-8.95-12.78-10.64-21.85c-1.76-9.45.12-41.61 0-42-5.21-17.6-19.38-63.2-26.21-80-3.79-9.3-6.45-15.56-6.45-15.56l1.91-.43 15.05-6.16 11 2.06s33.31 67.37 36.8 92.71c2.57 18.9-3.03 67.79-3.03 67.79z" fill="#fff" opacity=".3"/><path d="m273.46 310.49c-5.21-17.6-15.73-44.29-22.57-61.07l-4.53-16-.87-3.08 1.59 2.91 17.85 39.54c7.88 15.21 8.65 38.13 8.53 37.7z" opacity=".2"/><path d="m192.57 398.38 8.88 3.74 9.47-20.33-8.87-3.74z" fill="#e8bfbf"/><path d="m207.23 406.37a3.64 3.64 0 0 0 2.36.53 1.26 1.26 0 0 0 .87-.81.72.72 0 0 0 -.07-.71c-.76-1.12-5.09-1.11-5.57-1.11a.27.27 0 0 0 -.22.16.24.24 0 0 0 .08.25 16.57 16.57 0 0 0 2.55 1.69zm2.4-1a.85.85 0 0 1 .35.27.3.3 0 0 1 0 .29.88.88 0 0 1 -.57.54c-.76.2-2.21-.44-4-1.72a12.45 12.45 0 0 1 4.2.63z" fill="#fa7436"/><path d="m204.72 404.72h.08c1.27.07 4.24-.77 4.57-1.82a.85.85 0 0 0 -.47-1 1.62 1.62 0 0 0 -1.3-.25c-1.54.34-2.91 2.57-3 2.66a.25.25 0 0 0 0 .22.23.23 0 0 0 .12.19zm3.79-2.47h.14c.35.23.29.39.27.44-.19.64-2.31 1.4-3.67 1.48a5.17 5.17 0 0 1 2.44-2.11 1.19 1.19 0 0 1 .84.17z" fill="#fa7436"/><path d="m203.06 398-8-3.36a.76.76 0 0 0 -1 .3l-7 10a1.56 1.56 0 0 0 .63 2.12l.17.08c3.49 1.43 5.25 1.95 9.64 3.83 2.69 1.16 10.39 5.95 14.35 6.8s5-3 3.44-3.73c-5.07-2.27-9.33-8.27-10.44-13.46-.25-.5-1.23-2.35-1.79-2.58z" fill="#263238"/><path d="m211.31 382.03-5.13 10.35-8.79-3.94 5.12-10.36z" opacity=".2"/><path d="m213.16 393.31-17.68-9.42s-3.39-12.59 0-20.62c6.52-15.45 23.5-38.17 23.61-38.6 4.53-17.78 12.47-66.49 15.19-84.4 1.5-9.93 2.39-12.07 2.39-12.07l1.87.61 27 .05s5.1 41-14.46 104.4c-4.86 15.78-13 28.9-26.43 46.65a170.43 170.43 0 0 1 -11.49 13.4z" fill="#fa7436"/><path d="m213.16 393.31-17.68-9.42s-3.39-12.59 0-20.62c6.52-15.45 23.5-38.17 23.61-38.6 4.53-17.78 12.47-66.49 15.19-84.4 1.5-9.93 2.39-12.07 2.39-12.07l1.87.61 27 .05s5.1 41-14.46 104.4c-4.86 15.78-13 28.9-26.43 46.65a170.43 170.43 0 0 1 -11.49 13.4z" fill="#fff" opacity=".3"/><path d="m289.56 195.39a16.35 16.35 0 0 1 3.95-8.76c.55-.58 2.66-1.46 3.86-2.24 5.87-3.85 17.63-8.66 17.63-8.66l3.63 3.16s-7.16 6.92-11.42 10.24c-.84.66-1.81 1.45-2.83 2.29-1.86 1.54-10.58 7.29-12.24 8.74z" fill="#e8bfbf"/><path d="m325.34 173.94-6.71 5-3.76-2.77a38.56 38.56 0 0 1 3.11-3.48 3.56 3.56 0 0 0 1.08-2.54 8.55 8.55 0 0 1 1-4.45.56.56 0 0 1 0-.08 3.11 3.11 0 0 1 5.54 1l1 3.58a3.55 3.55 0 0 1 -1.26 3.74z" fill="#e8bfbf"/><path d="m291.7 196.73-1.77 1.62c-.55-.44-1.42-1.15-2.52-2.07-8.62-7.15-30.23-24.51-21.62-29.46 7.39-4.25 15.23 8.74 19.14 12.65a33.18 33.18 0 0 1 4.74 6.47c1.84 3.32 3.2 7.33 2.03 10.79z" fill="#263238"/><path d="m289.66 184.39a28.85 28.85 0 0 0 -7.63 8.32 17.31 17.31 0 0 0 9.48 10.74 38 38 0 0 0 3.13-18.09c-1.56-.36-3.42-.63-4.98-.97z" fill="#263238"/><path d="m242.21 165.81c-3.09 1-6.62.19-8.6 2.76s-2.57 5.94-2.57 9.18a59.85 59.85 0 0 0 2.06 13.33q1.86 8 3.73 15.95c.85 3.64-.05 20.55.86 20.83 0 0 28.27-.55 35.36-1.55 0 0 .61-17.38 1.18-23.3.13-1.31 2.12-6.89 2.35-8.29 1.11-6.6-1.06-11.25-3.34-17.55 0 0-5-10.07-7.45-10.35-4.35-.49-14.99-3.82-23.58-1.01z" fill="#263238"/><path d="m241 174.14c-.1-.58-5.12-10.72-9.93-3.63-6.69 9.86-7.14 22.24-7.14 22.24s-4.11 12-1.25 14.66 6 4.32 8 2.83a12.9 12.9 0 0 0 3.3-4.47s8.8-21.31 7.02-31.63z" fill="#263238"/><path d="m240.69 162.05a4.3 4.3 0 0 0 .5 6.78 5.68 5.68 0 0 0 7.65 6.8c-.84 1.52.11 3.53 1.58 4.47a12.11 12.11 0 0 0 5 1.34 8.33 8.33 0 0 1 4.8 1.81l5.34-7.69a6.63 6.63 0 0 0 1.47-3.29c.05-1.21-.87-2.55-2.08-2.46a3.55 3.55 0 0 0 -4.79-5.21 2.72 2.72 0 0 0 -1.22-2.73 6.38 6.38 0 0 0 -3-.91z" fill="#263238"/><path d="m243.9 149c1.39 5.1 3.08 14.51-.29 18.23a48.89 48.89 0 0 1 16.33 11.49 7.87 7.87 0 0 0 1.86-9 7.7 7.7 0 0 0 -4.28-4.23c-3.72-1.58-3.75-5.23-3.13-8.74z" fill="#e8bfbf"/><path d="m246 157.69 3.51.95a11.26 11.26 0 0 0 4.62.27 7.34 7.34 0 0 0 .33 3.21 6.5 6.5 0 0 1 -6.94-1.47 11.36 11.36 0 0 1 -1.52-2.96z" opacity=".2"/><path d="m237.09 144.65c3.71 7.84 5.12 11.24 10.84 13.74 8.62 3.77 17.42-2.53 16.12-11.32-1.18-7.91-7.06-19.42-16.21-19.46a11.83 11.83 0 0 0 -10.75 17z" fill="#e8bfbf"/><path d="m241.17 129.67c-2.71-1.26-6.07-.23-8.33 1.75s-3.69 4.84-5 7.59a20.11 20.11 0 0 0 -1.8 4.63 6.72 6.72 0 0 0 .62 4.83 5.13 5.13 0 0 0 4 2.41 2.74 2.74 0 0 1 2.33 1.61 5.4 5.4 0 0 1 0 2.56 5.46 5.46 0 0 0 0 2.48 3.72 3.72 0 0 0 3.23 2.26 11.1 11.1 0 0 0 4.09-.66 2.37 2.37 0 0 1 2.35.48 2 2 0 0 1 .4.51 1.09 1.09 0 0 0 1.94-.12c1.21-2.88-.55-7.47-3.17-11-1.39-1.86-1.32-1.39-1.86-3.65-.46-1.88.23-3.84 1.07-5.58 1.13-2.33 2.57-4.59 2.12-7.37a3.62 3.62 0 0 0 -1.99-2.73z" fill="#263238"/><path d="m237.32 152.68a6.79 6.79 0 0 0 4.74 2.13c2.39.06 3-2.22 1.84-4.17-1-1.75-3.54-3.88-5.7-3s-2.38 3.36-.88 5.04z" fill="#e8bfbf"/><path d="m252 143.26c.28.68.83 1.05 1.26.87s.54-.83.3-1.5-.82-1-1.26-.87-.53.84-.3 1.5z" fill="#263238"/><path d="m259.35 140.1c.27.69.82 1.05 1.25.88s.54-.83.3-1.5-.82-1-1.25-.87-.56.84-.3 1.49z" fill="#263238"/><path d="m259.46 138.73 1.39-1.09s-.3 1.55-1.39 1.09z" fill="#263238"/><path d="m257.45 141.57c1.7 1.68 3 2 4.82 3.14a2.16 2.16 0 0 1 -1.59 2z" fill="#ed847e"/><path d="m259.9 149.92a5.94 5.94 0 0 0 .92-.43.2.2 0 0 0 .08-.27.22.22 0 0 0 -.28-.08 5.56 5.56 0 0 1 -5.08.26.21.21 0 0 0 -.28.09.2.2 0 0 0 .08.28 5.87 5.87 0 0 0 4.56.15z" fill="#263238"/><path d="m251.76 137.81a.44.44 0 0 1 -.32.4c-1.92.57-2.77 3-2.77 3a.43.43 0 0 1 -.82-.27c.07-.1 1-2.89 3.34-3.59a.45.45 0 0 1 .54.3.32.32 0 0 1 .03.16z" fill="#263238"/><path d="m260.61 136.63a.44.44 0 0 1 -.51 0c-1.56-1.26-4.05-.57-4.06-.56a.43.43 0 0 1 -.54-.29.44.44 0 0 1 .29-.54c.12 0 3-.82 4.85.7a.45.45 0 0 1 .07.61.36.36 0 0 1 -.1.08z" fill="#263238"/><path d="m252.16 141.87 1.39-1.08s-.32 1.55-1.39 1.08z" fill="#263238"/><path d="m241.77 128.36a7.26 7.26 0 0 0 -5.44 3.26c-.8 1.24-1.08 3.12.1 4a3.76 3.76 0 0 0 2 .55c3 .27 6.79-2.08 6.79-2.08-1.17-5 9.26-8.82 14.4-1.12 1.51 2.26 1.1 3.9 3.61 4.95 1.18.49 2.74.35 3.5 1.39 1.25 1.71-1.16 4.61.37 6.08 1.05 1 3.43.62 3.58 2.07.06.68-.38 1.66.27 1.86.36.11.7-.22.93-.52a5.87 5.87 0 0 0 1.34-2.36 2.07 2.07 0 0 0 -.95-2.34c-.64-.29-2.33 0-2.22.72a21.92 21.92 0 0 1 -.25-4.8c.28-1.34 1.56-2.51 1.17-3.83s-2.08-2-3.53-2.18-3.1-.39-4-1.55-.54-3.16-.86-4.77a6.6 6.6 0 0 0 -4-4.46c-5.85-2.51-14.82-2.15-16.81 5.13z" fill="#263238"/><path d="m258.24 155-20 10.05a14.23 14.23 0 0 0 -6.86 17.95l9.62 24.6a14.26 14.26 0 0 0 17.22 8.49l21.5-6.2a14.24 14.24 0 0 0 9.33-18.89l-11.15-28.42a14.25 14.25 0 0 0 -19.66-7.58zm-3.31 42.24a8.67 8.67 0 1 1 4.91-11.23 8.67 8.67 0 0 1 -4.91 11.27z" fill="#fa7436"/><path d="m258.24 155-20 10.05a14.23 14.23 0 0 0 -6.86 17.95l9.62 24.6a14.26 14.26 0 0 0 17.22 8.49l21.5-6.2a14.24 14.24 0 0 0 9.33-18.89l-11.15-28.42a14.25 14.25 0 0 0 -19.66-7.58zm-3.31 42.24a8.67 8.67 0 1 1 4.91-11.23 8.67 8.67 0 0 1 -4.91 11.27z" fill="#fa7436"/><path d="m289.05 191-11.15-28.42a14.25 14.25 0 0 0 -19.66-7.58l-5.81 3-3.9 2-10.28 5.17a14.23 14.23 0 0 0 -6.87 17.83l9.62 24.6a14.26 14.26 0 0 0 17.22 8.49l21.51-6.2a14.09 14.09 0 0 0 4.7-2.38 13.61 13.61 0 0 0 2.77-2.8 14.2 14.2 0 0 0 1.85-13.71zm-34.12 6.26a8.67 8.67 0 1 1 4.91-11.26 8.67 8.67 0 0 1 -4.91 11.28z" fill="#fff" opacity=".1"/><path d="m258.44 156.92-18.75 9.42a13.35 13.35 0 0 0 -6.44 16.8l9.05 23.06a13.37 13.37 0 0 0 16.15 8l20.16-5.82a13.35 13.35 0 0 0 8.73-17.7l-10.45-26.68a13.37 13.37 0 0 0 -18.45-7.08zm-14.75 35.45a8.67 8.67 0 1 1 11.24 4.91 8.66 8.66 0 0 1 -11.24-4.91z" fill="#fa7436"/><path d="m258.44 156.92-18.75 9.42a13.35 13.35 0 0 0 -6.44 16.8l9.05 23.06a13.37 13.37 0 0 0 16.15 8l20.16-5.82a13.35 13.35 0 0 0 8.73-17.7l-10.45-26.68a13.37 13.37 0 0 0 -18.45-7.08zm-14.75 35.45a8.67 8.67 0 1 1 11.24 4.91 8.66 8.66 0 0 1 -11.24-4.91z" fill="#fa7436" opacity=".1"/><path d="m351.62 148-.57 1-.32.58-.91 1.65.38 4.23a1.19 1.19 0 0 1 -.06.53 1.35 1.35 0 0 1 -.77.82l-7.9 3.09a1.29 1.29 0 0 1 -1.12-.08 1.11 1.11 0 0 1 -.3-.22l-4.47-4.55-6.36 2.49.92 2.35-6.35 2.48 1.51 3.87-4.67 1.83a1.42 1.42 0 0 1 -1.16-.06 1.23 1.23 0 0 1 -.33-.23l-2.69-2.53-6.36 2.48 1.52 3.87-6.68 2.62 1.52 3.88a1.23 1.23 0 0 1 -.7 1.6l-18.29 7.16-7.94-20.25 66.18-25.91 1 .53 3.35 1.73a3.65 3.65 0 0 1 1.57 5.04z" fill="#fa7436"/><path d="m351.62 148-.57 1-.32.58-.91 1.65.38 4.23a1.19 1.19 0 0 1 -.06.53 1.35 1.35 0 0 1 -.77.82l-7.9 3.09a1.29 1.29 0 0 1 -1.12-.08 1.11 1.11 0 0 1 -.3-.22l-4.47-4.55-6.36 2.49.92 2.35-6.35 2.48 1.51 3.87-4.67 1.83a1.42 1.42 0 0 1 -1.16-.06 1.23 1.23 0 0 1 -.33-.23l-2.69-2.53-6.36 2.48 1.52 3.87-6.68 2.62 1.52 3.88a1.23 1.23 0 0 1 -.7 1.6l-18.29 7.16-7.94-20.25 66.18-25.91 1 .53 3.35 1.73a3.65 3.65 0 0 1 1.57 5.04z" fill="#fff" opacity=".1"/><path d="m351.36 145.72-70.76 27.7-2.06-5.2 67.46-26.41 3.36 1.72c1.28.66 2.01 1.27 2 2.19z" fill="#fa7436"/><path d="m351.36 145.72-70.76 27.7-2.06-5.2 67.46-26.41 3.36 1.72c1.28.66 2.01 1.27 2 2.19z" opacity=".1"/><path d="m350 149.62-.68 1.54a.19.19 0 0 0 0 .08l.39 4.18a1.33 1.33 0 0 1 0 .45.16.16 0 0 1 -.1.11l-8.59 3.38a.14.14 0 0 1 -.14 0 1 1 0 0 1 -.23-.19l-4.92-4.94a.15.15 0 0 0 -.17 0l-7 2.74a.17.17 0 0 0 -.09.21l.83 2.11a.16.16 0 0 1 -.09.21l-5.95 2.34a.16.16 0 0 0 -.09.21l1.43 3.63a.15.15 0 0 1 -.09.21l-4.36 1.72a.14.14 0 0 1 -.14 0 1.18 1.18 0 0 1 -.25-.19l-3.2-2.94a.16.16 0 0 0 -.16 0l-6.93 2.73a.15.15 0 0 0 -.09.21l1.46 3.72a.15.15 0 0 1 -.09.21l-26.61 10.47a.16.16 0 0 1 -.2-.09l-2.74-6.73a.17.17 0 0 1 .09-.21l69.34-27.29a.16.16 0 0 1 .2.22z" fill="#fa7436"/><path d="m350 149.62-.68 1.54a.19.19 0 0 0 0 .08l.39 4.18a1.33 1.33 0 0 1 0 .45.16.16 0 0 1 -.1.11l-8.59 3.38a.14.14 0 0 1 -.14 0 1 1 0 0 1 -.23-.19l-4.92-4.94a.15.15 0 0 0 -.17 0l-7 2.74a.17.17 0 0 0 -.09.21l.83 2.11a.16.16 0 0 1 -.09.21l-5.95 2.34a.16.16 0 0 0 -.09.21l1.43 3.63a.15.15 0 0 1 -.09.21l-4.36 1.72a.14.14 0 0 1 -.14 0 1.18 1.18 0 0 1 -.25-.19l-3.2-2.94a.16.16 0 0 0 -.16 0l-6.93 2.73a.15.15 0 0 0 -.09.21l1.46 3.72a.15.15 0 0 1 -.09.21l-26.61 10.47a.16.16 0 0 1 -.2-.09l-2.74-6.73a.17.17 0 0 1 .09-.21l69.34-27.29a.16.16 0 0 1 .2.22z" opacity=".1"/><path d="m310.67 171.27-26.61 10.47" fill="#fa7436" opacity=".1"/><path d="m248.07 179a10.87 10.87 0 1 0 14.1 6.16 10.85 10.85 0 0 0 -14.1-6.16zm6.86 18.3a8.67 8.67 0 1 1 4.91-11.23 8.67 8.67 0 0 1 -4.91 11.21z" fill="#fff" opacity=".3"/><path d="m287.21 204.7a13.56 13.56 0 0 1 -2.76 2.8l-35.93-47.59s3.17-1.59 3.89-2.07a.37.37 0 0 0 .05.15c1.54 3.33 29.78 40.01 34.75 46.71z" fill="#fff" opacity=".1"/><path d="m282 209c-.22.1-10.69 3.29-10.69 3.29l-11.67-15.45a10.87 10.87 0 0 0 -11.57-17.84 8.48 8.48 0 0 0 -1.39.67l-10.32-13.67s9.07-4.32 10.07-5c.27 1.93 35.57 47.6 35.57 48z" fill="#fff" opacity=".1"/><path d="m239.19 133.94a5.95 5.95 0 0 0 2 9.21c.86.4 1.8.59 2.64 1a2.83 2.83 0 0 1 1.72 2.09c.1 1-.67 2-.59 3a3.44 3.44 0 0 0 1.55 2.29 6.29 6.29 0 0 1 2 2 1.71 1.71 0 0 1 -.78 2.38 1.27 1.27 0 0 0 0 1.25.82.82 0 0 0 1 .13 5.09 5.09 0 0 0 2.39-4.17 4.42 4.42 0 0 0 -2.54-3.95 2.34 2.34 0 0 1 .17-1.82c.45-1.14.91-2.29 1.37-3.43a2 2 0 0 0 -.29-1.65 3.26 3.26 0 0 0 -1.21-.77l-2.95-1.26c-1.11-.48-4.42-4.9-.5-6.19a3 3 0 0 0 -2.62-1.72 3.92 3.92 0 0 0 -3.36 1.61z" fill="#263238"/><path d="m244.54 129.18-.3 3.49c1-1.6 2.79-4.71 2.73-4.59-.77.42-1.66.68-2.43 1.1z" fill="#263238"/><path d="m245.86 131.09 4.1-3.79a3 3 0 0 0 -3.11.72c.03-.09-.61 1.85-.99 3.07z" fill="#263238"/><path d="m237.53 225.7c-5.33 6.62-3.56 11.69-10.92 23.41 9.29 6.88 19.47 8 32.12 7 1.5-2.65 2.25-5.41 3.75-8.06 2.14 2.66 3.86 4.89 6 7.56 6.63-1 14.51-2.91 19.75-6.29-4.63-5.31-7.51-11.94-10.47-17.79-1.39-2.75-.81-3.9-4.5-7.5-11.75.54-23.4.82-35.14 1.37.32.05-.9.28-.59.3z" fill="#263238"/><path d="m239 224.59-.73 3.09c-.11.25.18.48.57.45l32.39-1.43a.53.53 0 0 0 .57-.37l.17-3.07c0-.2-.27-.38-.61-.35l-31.81 1.4a.63.63 0 0 0 -.55.28z" fill="#fa7436"/><path d="m239 224.59-.73 3.09c-.11.25.18.48.57.45l32.39-1.43a.53.53 0 0 0 .57-.37l.17-3.07c0-.2-.27-.38-.61-.35l-31.81 1.4a.63.63 0 0 0 -.55.28z" fill="#fa7436"/><path d="m246.13 228.14h-.94c-.18 0-.33-.08-.32-.19l.25-4c0-.12.17-.22.35-.22l.95-.05c.17 0 .32.08.31.2l-.25 4c-.01.12-.17.25-.35.26z" fill="#263238"/><path d="m269.51 227.13h-.94c-.18 0-.33-.08-.32-.19l.25-4c0-.12.17-.23.35-.23h.94c.18 0 .32.08.31.19l-.25 4c0 .1-.15.22-.34.23z" fill="#263238"/><path d="m250.31 208.72c.06.29 2.57 4.29 4.55 4a1.62 1.62 0 0 1 1.5.61c.79 1 1.27 1.62 1.8 2.3a3 3 0 0 0 3.65.86c.37-.17.74-.36 1.11-.56a3 3 0 0 0 1.52-3.39 16.5 16.5 0 0 0 -1.69-4.21 2.89 2.89 0 0 0 -1-1.16 24.75 24.75 0 0 0 -6.47-1.52c-1.7.07-3.36 2.35-4.97 3.07z" fill="#e8bfbf"/><path d="m255.38 205.53s-26.58-8.05-32.32-2.69c-3.37 3.15-1.78 6.13.11 8 1.4 1.43 4.45 1.08 6.45 1l20.94-2.06z" fill="#e8bfbf"/><path d="m240.1 201.85a4.37 4.37 0 0 0 -2.55-3.28 13 13 0 0 0 -4.19-1l-10-1.27a12.87 12.87 0 0 0 -2.87 7.82 12.14 12.14 0 0 0 2.86 7.52c1.6-3.09 3.71-6.27 6.83-7.81s6.5-2.6 9.92-1.98z" fill="#263238"/><path d="m233.25 153.3c0-.06 0-.09 0-.1.21-.06.18-.02 0 .1z" fill="#fff" opacity=".1"/><path d="m299.29 110.26 7.4 13.74 30.22-25.66a.28.28 0 0 0 -.33-.45l-28.33 18.7-4.36-8.52z" fill="#fa7436"/><path d="m282.59 137.63 12.22-13.63a19.45 19.45 0 0 1 -5.88-13.69c0-12.58 13.16-22.81 29.34-22.81s29.35 10.23 29.35 22.81-13.17 22.8-29.35 22.8a35.16 35.16 0 0 1 -16.38-3.89zm35.68-48.81c-15.46 0-28 9.65-28 21.51a18.35 18.35 0 0 0 5.93 13.21l.44.43-9.05 10.09 14.41-6.26.28.15a33.81 33.81 0 0 0 16 3.88c15.47 0 28.05-9.64 28.05-21.5s-12.59-21.51-28.06-21.51z" fill="#fa7436"/></svg>